<?xml version="1.0" encoding="UTF-8" standalone="no"?>
<!-- Created with Inkscape (http://www.inkscape.org/) -->

<svg
   xmlns:dc="http://purl.org/dc/elements/1.1/"
   xmlns:cc="http://creativecommons.org/ns#"
   xmlns:rdf="http://www.w3.org/1999/02/22-rdf-syntax-ns#"
   xmlns:svg="http://www.w3.org/2000/svg"
   xmlns="http://www.w3.org/2000/svg"
   xmlns:sodipodi="http://sodipodi.sourceforge.net/DTD/sodipodi-0.dtd"
   xmlns:inkscape="http://www.inkscape.org/namespaces/inkscape"
   width="512"
   height="512"
   viewBox="0 0 135.46667 135.46667"
   version="1.1"
   id="svg8"
   inkscape:export-filename="/home/befana/Documentos/Personal/Aire/LogoApp.png"
   inkscape:export-xdpi="96.000008"
   inkscape:export-ydpi="96.000008"
   inkscape:version="0.92.4 (5da689c313, 2019-01-14)"
   sodipodi:docname="logo_app_tex.svg">
  <defs
     id="defs2">
    <style
       id="style1162"
       type="text/css">
   
    .fil0 {fill:black}
   
  </style>
  </defs>
  <sodipodi:namedview
     id="base"
     pagecolor="#ffffff"
     bordercolor="#666666"
     borderopacity="1.0"
     inkscape:pageopacity="0.0"
     inkscape:pageshadow="2"
     inkscape:zoom="0.98994949"
     inkscape:cx="458.40318"
     inkscape:cy="199.4096"
     inkscape:document-units="mm"
     inkscape:current-layer="g49"
     showgrid="false"
     showguides="true"
     inkscape:guide-bbox="true"
     units="px"
     fit-margin-top="0"
     fit-margin-left="0"
     fit-margin-right="0"
     fit-margin-bottom="0"
     inkscape:window-width="1918"
     inkscape:window-height="1078"
     inkscape:window-x="0"
     inkscape:window-y="0"
     inkscape:window-maximized="1" />
  <metadata
     id="metadata5">
    <rdf:RDF>
      <cc:Work
         rdf:about="">
        <dc:format>image/svg+xml</dc:format>
        <dc:type
           rdf:resource="http://purl.org/dc/dcmitype/StillImage" />
        <dc:title />
      </cc:Work>
    </rdf:RDF>
  </metadata>
  <g
     inkscape:label="Capa 1"
     inkscape:groupmode="layer"
     id="layer1"
     transform="translate(0,-161.53333)">
    <g
       id="g1003"
       transform="matrix(0.26458333,0,0,0.26458333,-403.33068,4.018526)" />
    <g
       id="g1005"
       transform="matrix(0.26458333,0,0,0.26458333,-403.33068,4.018526)" />
    <g
       id="g1007"
       transform="matrix(0.26458333,0,0,0.26458333,-403.33068,4.018526)" />
    <g
       id="g1009"
       transform="matrix(0.26458333,0,0,0.26458333,-403.33068,4.018526)" />
    <g
       id="g1011"
       transform="matrix(0.26458333,0,0,0.26458333,-403.33068,4.018526)" />
    <g
       id="g1013"
       transform="matrix(0.26458333,0,0,0.26458333,-403.33068,4.018526)" />
    <g
       id="g1015"
       transform="matrix(0.26458333,0,0,0.26458333,-403.33068,4.018526)" />
    <g
       id="g1017"
       transform="matrix(0.26458333,0,0,0.26458333,-403.33068,4.018526)" />
    <g
       id="g1019"
       transform="matrix(0.26458333,0,0,0.26458333,-403.33068,4.018526)" />
    <g
       id="g1021"
       transform="matrix(0.26458333,0,0,0.26458333,-403.33068,4.018526)" />
    <g
       id="g1023"
       transform="matrix(0.26458333,0,0,0.26458333,-403.33068,4.018526)" />
    <g
       id="g1025"
       transform="matrix(0.26458333,0,0,0.26458333,-403.33068,4.018526)" />
    <g
       id="g1027"
       transform="matrix(0.26458333,0,0,0.26458333,-403.33068,4.018526)" />
    <g
       id="g1029"
       transform="matrix(0.26458333,0,0,0.26458333,-403.33068,4.018526)" />
    <g
       id="g1031"
       transform="matrix(0.26458333,0,0,0.26458333,-403.33068,4.018526)" />
    <g
       id="g49"
       transform="matrix(0.94167595,0,0,0.94167595,1.530154,12.414727)">
      <g
         transform="matrix(0.93303571,0,0,0.93303571,7.1059527,9.8342278)"
         id="g1396">
        <path
           inkscape:connector-curvature="0"
           style="fill:#849da9;stroke-width:0.21673432"
           d="m 117.58016,263.01514 c 0,8.87745 -7.29224,16.1697 -16.48677,16.1697 h -5.38998 c -2.536439,2.21935 -5.706837,3.48746 -9.19452,3.48746 -3.487692,0 -6.658081,-1.26811 -9.194521,-3.48746 h -1.585192 c -2.53644,2.85351 -6.341001,4.43871 -10.462634,4.43871 -4.121642,0 -7.926185,-1.5852 -10.462632,-4.43871 h -1.902276 c -2.536448,2.21935 -5.706827,3.48746 -9.19452,3.48746 -3.804552,0 -6.975162,-1.58519 -9.511601,-3.80455 v 0 c -10.462642,-1.58518 -18.38904,-10.46263 -18.38904,-21.24235 0,-10.77971 7.926193,-19.97423 18.38904,-21.55942 3.170602,-10.46264 13.316153,-18.38905 24.73003,-18.38905 10.462632,0 19.657153,6.02393 23.778786,15.21844 1.902284,-1.26812 4.438723,-1.90228 6.975161,-1.90228 7.292246,0 12.999089,5.70683 12.999089,12.99906 0,0.95126 0,1.9023 -0.31708,2.53647 8.87767,1.2681 15.21866,8.24326 15.21866,16.48652 z"
           id="path995" />
        <g
           style="opacity:0.1"
           id="g999"
           transform="matrix(0.21673432,0,0,0.21673432,12.953165,197.06853)">
          <path
             inkscape:connector-curvature="0"
             style="fill:#030303"
             d="m 415.451,215.04 c -23.406,-8.777 -49.737,-13.166 -76.069,-13.166 -111.177,0 -203.337,84.846 -215.04,193.097 -10.24,-2.926 -19.017,-8.777 -26.331,-14.629 v 0 c -48.274,-7.314 -84.846,-48.274 -84.846,-98.011 0,-49.737 36.571,-92.16 84.846,-99.474 14.629,-48.274 61.44,-84.846 114.103,-84.846 48.274,0 90.697,27.794 109.714,70.217 8.777,-5.851 20.48,-8.777 32.183,-8.777 33.646,-2.925 61.44,23.406 61.44,55.589 z"
             id="path997" />
        </g>
        <path
           inkscape:connector-curvature="0"
           style="fill:#030303;stroke-width:0.21673432"
           d="m 65.583626,287.11103 c -4.121634,0 -8.243268,-1.5852 -11.413878,-4.43873 C 48.14583,287.42811 38.95131,287.11103 33.24426,282.03814 21.513525,279.819 12.953165,269.67323 12.953165,257.6254 c 0,-11.73095 8.243269,-21.55942 19.340072,-24.09587 4.438716,-11.0968 15.21843,-18.70612 27.26647,-18.70612 10.145552,0 19.657153,5.38997 25.04712,13.95033 1.902277,-0.63417 3.804552,-0.95125 5.706838,-0.95125 8.877429,0 16.169695,7.29224 16.169695,16.16966 v 0 c 8.24329,2.21938 14.26741,10.14557 14.26741,18.70613 0,10.77972 -8.87744,19.34007 -19.65718,19.34007 h -4.12164 c -5.706828,4.43872 -14.267398,4.7558 -20.291316,0.3171 -2.85352,3.17038 -6.975375,4.75558 -11.097008,4.75558 z M 53.218708,276.33131 h 1.902284 c 0.951245,0 1.585194,0.31709 2.219366,0.95126 2.219349,2.21935 5.07287,3.48745 7.926185,3.48745 2.853308,0 6.023909,-1.2681 7.926194,-3.48745 0.634163,-0.63417 1.585185,-0.95126 2.219348,-0.95126 h 1.585204 c 0.951245,0 1.585193,0.31709 2.219357,0.95126 3.804552,3.48745 10.145551,3.48745 13.950325,0 0.634164,-0.63417 1.268113,-0.95126 2.219357,-0.95126 h 5.389972 c 7.29227,0 13.31618,-6.02391 13.31618,-12.99909 0,-6.65805 -5.07289,-12.36489 -11.73098,-12.99906 -0.95126,0 -1.5852,-0.63416 -2.21938,-1.26811 -0.634159,-0.63417 -0.634159,-1.58519 -0.634159,-2.53643 0,-0.63417 0.317082,-1.26813 0.317082,-1.90229 0,-5.38996 -4.438715,-9.82869 -9.828683,-9.82869 -1.902275,0 -3.80456,0.63417 -5.072887,1.5852 -0.634163,0.63415 -1.585194,0.63415 -2.536438,0.31708 -0.951246,-0.31708 -1.585195,-0.95125 -1.902276,-1.58519 -3.804552,-7.92619 -12.048049,-13.31616 -20.925478,-13.31616 -10.145552,0 -18.706122,6.341 -21.876519,16.16968 -0.317073,1.26812 -1.268105,1.90227 -2.536439,2.21936 -8.877439,1.26811 -15.852593,9.19452 -15.852593,18.38904 0,9.19453 6.65808,17.12071 15.852593,18.07196 0.634162,0 1.268112,0.31708 1.902276,0.95123 3.80456,3.80457 10.145551,3.80457 14.267406,0.3171 0.317518,-1.26854 0.951467,-1.58563 1.902703,-1.58563 z"
           id="path1001" />
        <g
           style="clip-rule:evenodd;fill-rule:evenodd;image-rendering:optimizeQuality;shape-rendering:geometricPrecision;text-rendering:geometricPrecision"
           transform="matrix(0.23532156,0,0,0.23532156,37.52259,163.24019)"
           id="g1198">
          <path
             style="fill:#000000"
             inkscape:connector-curvature="0"
             class="fil0"
             d="m 160,65 c 32,16 34,44 39,61 57,1 59,-17 94,-32 19,98 -74,64 -81,93 23,16 60,-29 89,10 -14,23 -30,39 -67,42 -37,2 -63,-12 -75,-32 34,-26 46,-52 -4,-22 C 29,228 29,28 160,65 Z m -54,56 3,14 c 18,1 32,-6 15,-19 -11,-9 -20,-6 -18,5 z M 7,138 c -1,7 14,15 44,28 14,40 78,42 90,41 0,14 14,28 28,36 16,10 13,2 24,17 l -33,-4 2,18 c 26,6 18,0 30,22 31,1 -7,-28 33,-37 26,-6 76,-3 96,-57 16,-43 -10,-28 -24,-34 21,-26 27,-74 7,-103 -19,2 -39,37 -90,42 C 184,2 49,26 44,112 20,124 21,113 7,138 Z m 16,-1 c 5,-6 23,-10 22,2 0,8 -16,6 -22,-2 z"
             id="path1166" />
          <path
             style="opacity:1;vector-effect:none;fill:#ffcc00;fill-opacity:1;stroke:#000000;stroke-width:10.79865074;stroke-linecap:butt;stroke-linejoin:miter;stroke-miterlimit:4;stroke-dasharray:none;stroke-dashoffset:0;stroke-opacity:1"
             d="m -672.58993,281.15564 c -12.45189,-4.07049 -24.03771,-10.9902 -31.15217,-18.60586 l -6.88495,-7.36999 14.74209,-15.58759 c 8.10816,-8.57318 14.7421,-16.95027 14.7421,-18.61577 0,-5.27516 -10.33624,-3.3022 -29.02917,5.541 -14.59249,6.90338 -21.8903,8.56962 -37.54128,8.57143 -27.36634,0.003 -43.22087,-8.57187 -53.65788,-29.02127 -17.13302,-33.56898 -3.07796,-76.24607 30.06888,-91.30183 11.90175,-5.40593 35.79662,-6.97578 53.19987,-3.49514 15.10826,3.02166 32.69352,22.80234 39.36255,44.27675 l 5.6258,18.11517 16.6999,-0.76775 c 21.40647,-0.98414 32.32434,-4.56622 55.43752,-18.18867 10.3057,-6.07397 19.62712,-11.04358 20.71429,-11.04358 1.08717,0 1.97186,8.67857 1.96599,19.28572 -0.018,32.3221 -12.20885,45.25798 -50.72789,53.82766 -21.74111,4.83693 -34.48186,12.17985 -30.97598,17.85247 2.82283,4.56745 18.04024,4.159 34.83189,-0.93492 7.71403,-2.34013 18.52551,-4.2639 24.02551,-4.27504 9.79648,-0.0197 28.57143,8.97476 28.57143,13.68784 0,5.37024 -21.41747,26.88362 -32.44984,32.59516 -12.83284,6.64365 -53.81125,9.95146 -67.56866,5.45421 z m -67.43516,-103.18229 c 3.74419,-3.74419 0.0349,-10.33841 -10.05156,-17.86901 -12.81109,-9.56486 -19.90515,-1.2629 -14.89946,17.43637 1.57965,5.90096 3.0485,6.5332 11.85725,5.10374 5.52984,-0.89737 11.42203,-2.99936 13.09377,-4.6711 z"
             id="path1191"
             inkscape:connector-curvature="0"
             transform="translate(871.62494,-46.741788)" />
          <path
             style="opacity:1;vector-effect:none;fill:#ff6600;fill-opacity:1;stroke:#000000;stroke-width:2.69966269;stroke-linecap:butt;stroke-linejoin:miter;stroke-miterlimit:4;stroke-dasharray:none;stroke-dashoffset:0;stroke-opacity:1"
             d="m -838.4984,189.66814 c -3.67585,-1.15654 -6.03017,-2.39257 -8.03465,-4.21826 -1.49569,-1.36228 -1.52583,-1.55149 -0.43855,-2.75291 3.1147,-3.44171 13.98261,-5.3488 17.28792,-3.03367 3.84204,2.69107 3.67731,8.33582 -0.29165,9.99416 -2.88179,1.20409 -4.72269,1.20639 -8.52307,0.0107 z"
             id="path1193"
             inkscape:connector-curvature="0"
             transform="translate(871.62494,-46.741788)" />
        </g>
        <rect
           style="opacity:1;vector-effect:none;fill:none;fill-opacity:1;stroke:none;stroke-width:1;stroke-linecap:butt;stroke-linejoin:miter;stroke-miterlimit:4;stroke-dasharray:none;stroke-dashoffset:0;stroke-opacity:1"
           id="rect1212"
           width="135.46666"
           height="135.46666"
           x="0"
           y="161.53334" />
      </g>
      <text
         id="text35"
         y="298.53336"
         x="12.067991"
         style="font-style:normal;font-weight:normal;font-size:9.48445988px;line-height:1.25;font-family:sans-serif;letter-spacing:0px;word-spacing:0px;fill:#000000;fill-opacity:1;stroke:none;stroke-width:0.23711149"
         xml:space="preserve"><tspan
           style="font-style:normal;font-variant:normal;font-weight:bold;font-stretch:normal;font-size:25.29189491px;font-family:'URW Gothic';-inkscape-font-specification:'URW Gothic Bold';stroke-width:0.23711149"
           y="298.53336"
           x="12.067991"
           id="tspan33"
           sodipodi:role="line">CanAir.io</tspan></text>
    </g>
  </g>
</svg>
